#!OML:ASF E:/inclinewalkrobotboard/Project1/Captureday1/Session1/subject1.ASF
:FULLY-SPECIFIED
:DEGREES
263
root 0 0 0 -2.440321309463301 0.5638333503264388 0.13820150577473367
lowerback 8.702903340915613 -1.5161424494934508 -2.2155176250875126
upperback 0.042656720711966356 -2.1143253797604835 2.3062323312646535
thorax -4.706225263368795 -0.9699376412765486 3.9679156993948648
lowerneck -17.267159274012055 -2.710845532969154 -2.737091425779228
upperneck 19.718120922030867 -3.1089954411679925 0.4222335807514399
head 8.962489229032736 -1.6273612178697126 0.17483430821958124
rclavicle 1.1103099500264194E-15 6.166230161164683E-16
rhumerus -34.08924442138882 -27.626456068464417 -79.19761719167438
rradius 18.4067936235408
rwrist 9.553768866346072
rhand -18.82755230207299 24.200942136853858
rfingers 7.1250200000000135
rthumb 7.494138479485855 -5.7512741985439995
lclavicle 4.312668840257005E-15 1.6957597552893114E-15
lhumerus -27.37152710725411 -4.0279102073197555 83.00374595400318
lradius 30.98292072761114
lwrist 8.073832182858032
lhand -28.28573747905949 25.34433962540476
lfingers 7.1250200000000286
lthumb -1.6728204085532514 55.334192179793114
rfemur -21.296918848531238 5.911623602082656 25.059996901545134
rtibia 30.4376059793009
rfoot -9.967273252145464 -8.854291828021529
rtoes 2.597606303998738
lfemur 9.76723897118773 -4.6618237361635115 -23.95862781569148
ltibia 33.79185037948065
lfoot -6.368891289203624 -7.158003899066415
ltoes -8.921546567590322
264
root 0 0 0 -3.2216410694697384 0.14803754780443423 -0.9879710735924698
lowerback 10.70419662357231 -1.5852209811925992 -1.045747327377669
upperback 0.5420734847418202 -2.043207915158832 2.615579721225771
thorax -5.327606403639584 -0.9639348516562591 3.6089866025363495
lowerneck -17.69986959573918 -2.782882849820331 -2.408298212428776
upperneck 16.457675467818863 -3.029692792927391 -0.31379751577880133
head 7.917870008831823 -1.675156096058194 -0.09798060799994979
rclavicle 1.8796477729548863E-16 -4.688466603904556E-17
rhumerus -33.987509912163574 -27.38736920707839 -79.24400262512629
rradius 18.031457728753182
rwrist 9.849386775162607
rhand -18.610812461754378 24.327408577975277
rfingers 7.125020000000015
rthumb 7.701062161988349 -5.601482533051097
lclavicle 2.142050179560983E-15 7.803843786705137E-16
lhumerus -27.877185327955004 -3.6084534997078004 83.4739664851339
lradius 30.313259558547607
lwrist 7.813439113657251
lhand -28.19469554734681 25.541019796164463
lfingers 7.125020000000033
lthumb -1.5780354401075556 55.543995179539074
rfemur -14.662272951770209 6.713505183925193 29.09783095612101
rtibia 32.943427043823405
rfoot -10.777090704674132 -7.140450789304738
rtoes 5.476810343638081
lfemur -0.5515600196942421 -2.140825567034601 -20.05109433143515
ltibia 48.76478966870326
lfoot 4.547880003035843 -13.343240588116277
ltoes -1.3504060025048439
265
root 0 0 0 -3.680089961938381 -0.48673508516932995 -2.1533440755303435
lowerback 10.914242295842127 -1.3244269912074729 0.1444635158549764
upperback 0.43682394643647215 -1.5508818508045736 2.7343104298107175
thorax -5.586938842424624 -0.7466566174441149 2.9960664536970136
lowerneck -18.187570323722554 -2.7119682590704977 -2.1809614810042106
upperneck 16.507351369977027 -3.015232416610354 -0.3460327071790419
head 8.098884274224476 -1.6364096723090602 -0.14649858752628664
rclavicle -4.1972599819391933E-16 -1.7844247099248388E-15
rhumerus -33.54446823471662 -26.85469008595607 -79.31328720722809
rradius 17.714644744465318
rwrist 10.459975893606998
rhand -18.38914842152033 24.792737510859766
rfingers 7.125020000000015
rthumb 7.911682708842308 -5.111528053721003
lclavicle -4.346384754037318E-16 -1.3123347939172264E-15
lhumerus -28.335608388640274 -2.9006871451793286 84.15659169626535
lradius 29.047846748172734
lwrist 7.24808846483085
lhand -28.137819566675432 25.782718050614427
lfingers 7.125020000000039
lthumb -1.5129712411636653 55.801826200878935
rfemur -7.998206729705422 7.560488131327062 33.37171698500717
rtibia 35.9665395921189
rfoot -11.757412140495802 -5.600960646301798
rtoes 8.49800985266911
lfemur -8.703132610494176 1.7397522897550939 -17.89227414118148
ltibia 55.52492744305218
lfoot 7.9829711006582755 -15.478439352985156
ltoes -2.46120062675579
266
root 0 0 0 -4.131781813379364 -2.0858969542729673 -4.2301603870259274
lowerback 9.682061192942172 -0.47587414676350515 2.0386009147738897
upperback -0.23882678147535372 -0.19065697258808512 2.8217232826532532
thorax -5.612866041154312 -0.11431238123814413 1.858353101085605
lowerneck -18.48141083635858 -2.7913271367584933 -1.7887299054948302
upperneck 19.412754637737137 -3.404827477987037 0.01075526831073792
head 9.303535351435922 -1.6994583698718184 -0.1621550560065505
rclavicle -8.701766724059811E-16 -2.1556298696929106E-15
rhumerus -33.29900789435811 -25.43806166607682 -79.85331944947578
rradius 17.853020559642665
rwrist 10.85559829978213
rhand -18.160108234124706 25.23423833717402
rfingers 7.125020000000017
rthumb 8.131418659492688 -4.619985476154881
lclavicle -2.77551112820861E-15 -1.7607890750501378E-15
lhumerus -28.872837042865605 -1.801204501890077 84.77457408479147
lradius 27.309558759786558
lwrist 6.460242107780042
lhand -28.129737153379416 26.038723016157245
lfingers 7.125020000000044
lthumb -1.5048291165332692 56.06915594613932
rfemur -5.851797454810428 7.761185354553316 34.7480844148141
rtibia 36.414944542206975
rfoot -13.26473343779712 -5.386066070218495
rtoes 9.272804817185204
lfemur -14.415047645540314 3.4564480597929323 -16.62708540038102
ltibia 58.16805422232499
lfoot 6.21856766151809 -13.862495883582039
ltoes -3.274093254966715
267
root 0 0 0 -3.7434056085257916 -4.221991295870298 -7.20893588695578
lowerback 7.7523927290000785 1.0231802549448288 5.025134255528009
upperback -0.8585357818819846 2.179344290374605 2.968806684069737
thorax -5.10144047050035 0.9914663560283288 0.031557139178387206
lowerneck -18.12425513306987 -3.269637800745832 -1.7439930082293063
upperneck 23.40247963167851 -4.275408250219729 0.6658485955454331
head 10.586830336578677 -2.010565587168456 -0.09701991779376823
rclavicle -2.015895250127663E-15 -3.2289924937920647E-16
rhumerus -33.48651963877509 -22.76515187652205 -81.0899487685725
rradius 18.20818704472623
rwrist 9.969375050476483
rhand -17.953793228508644 25.79200824588161
rfingers 7.125020000000018
rthumb 8.330818587288457 -3.9986061972315596
lclavicle -4.8310174674984036E-15 3.165640841698105E-17
lhumerus -29.693966549478105 -0.9186095513491562 85.25403711778614
lradius 26.127795820174153
lwrist 5.993675531949112
lhand -28.03789246839696 26.22150180848422
lfingers 7.125020000000045
lthumb -1.4228676677015404 56.249848082477016
rfemur -3.8208145879402124 7.96191834145856 35.016496306134904
rtibia 33.689447984362516
rfoot -15.50312822369422 -5.600956461572455
rtoes 8.758391453259307
lfemur -25.077292341890182 3.362821160812251 -11.712282134045743
ltibia 56.83488256782784
lfoot 2.4137863056311453 -8.035952430104722
ltoes -8.229497703124103
